<?xml version="1.0" standalone="no"?>
<!DOCTYPE svg PUBLIC "-//W3C//DTD SVG 20010904//EN"
 "http://www.w3.org/TR/2001/REC-SVG-20010904/DTD/svg10.dtd">
<svg version="1.0" xmlns="http://www.w3.org/2000/svg"
 width="720.000000pt" height="720.000000pt" viewBox="0 0 720.000000 720.000000"
 preserveAspectRatio="xMidYMid meet">
<metadata>
Created by potrace 1.11, written by Peter Selinger 2001-2013
</metadata>
<g transform="translate(0.000000,720.000000) scale(0.100000,-0.100000)"
fill="#000000" stroke="none">
<path d="M1356 7193 c-2 -3 -1 -15 4 -27 4 -13 5 -29 0 -36 -4 -7 -4 -24 0
-39 4 -14 4 -35 0 -46 -4 -11 -4 -32 1 -47 4 -15 4 -30 -1 -33 -5 -3 -5 -18
-1 -33 5 -15 5 -36 1 -47 -4 -11 -4 -32 1 -47 4 -15 4 -30 -1 -33 -5 -3 -5
-18 -1 -33 5 -15 5 -36 1 -47 -4 -11 -4 -32 1 -47 4 -15 4 -30 -1 -33 -5 -3
-5 -18 -1 -33 5 -15 5 -36 1 -47 -4 -11 -4 -32 1 -47 4 -15 4 -30 -1 -33 -5
-3 -5 -18 -1 -33 5 -15 5 -36 1 -47 -4 -11 -4 -32 1 -47 4 -15 4 -30 -1 -33
-5 -3 -5 -18 -1 -33 5 -15 5 -36 1 -47 -4 -11 -4 -32 1 -47 4 -15 4 -30 -1
-33 -5 -3 -5 -18 -1 -33 5 -15 5 -36 1 -47 -4 -11 -4 -32 1 -47 4 -15 4 -30
-1 -33 -5 -3 -5 -18 -1 -33 4 -15 5 -38 1 -52 -4 -14 -3 -37 1 -52 4 -15 4
-30 -1 -33 -5 -3 -5 -18 -2 -33 4 -15 6 -40 5 -57 -6 -63 -5 -123 1 -133 3 -5
-2 -11 -12 -14 -9 -2 -263 -3 -565 -2 l-547 0 2 -555 3 -556 555 0 555 0 2
-29 c1 -16 4 -35 7 -42 3 -7 1 -16 -4 -19 -5 -3 -5 -18 -2 -33 4 -15 6 -40 5
-57 -6 -60 -5 -124 2 -134 3 -6 1 -11 -5 -11 -6 0 -8 -5 -5 -11 7 -10 7 -29 4
-161 -1 -25 2 -51 5 -57 4 -5 2 -12 -3 -15 -5 -4 -6 -19 -3 -34 4 -15 6 -40 5
-57 -6 -60 -5 -124 2 -134 3 -6 1 -11 -5 -11 -6 0 -8 -5 -5 -11 4 -6 7 -33 6
-60 -1 -27 -1 -71 -2 -98 -1 -27 2 -54 5 -60 4 -5 2 -12 -3 -15 -6 -4 -6 -18
-1 -35 4 -15 4 -34 0 -41 -4 -7 -4 -26 0 -41 5 -16 5 -31 0 -34 -5 -3 -5 -18
-1 -33 5 -15 5 -36 1 -47 -4 -11 -4 -32 1 -47 4 -15 4 -30 -1 -33 -5 -3 -5
-18 -1 -33 5 -15 5 -36 1 -47 -4 -11 -4 -32 1 -47 4 -15 4 -30 -1 -33 -5 -3
-5 -18 -1 -33 5 -15 5 -36 1 -47 -4 -11 -4 -32 1 -47 4 -15 4 -30 -1 -33 -5
-3 -5 -18 -1 -33 5 -15 5 -36 1 -47 -4 -11 -4 -32 1 -47 4 -15 4 -30 -1 -33
-5 -3 -5 -18 -1 -33 5 -15 5 -36 1 -47 -4 -11 -4 -32 1 -47 4 -15 4 -30 -1
-33 -4 -3 -5 -17 -1 -33 4 -15 4 -43 1 -64 -4 -20 -4 -42 1 -49 4 -7 3 -21 -2
-31 -5 -10 -6 -18 -1 -18 5 0 7 -11 4 -25 -3 -17 -11 -25 -26 -26 -11 0 -263
-1 -558 -1 l-538 -1 0 -556 0 -556 560 1 c499 0 560 -1 562 -15 2 -9 1 -42 -2
-74 -3 -32 -1 -62 4 -67 7 -7 6 -10 -3 -10 -7 0 -9 -5 -6 -11 9 -13 10 -107 2
-115 -3 -3 -1 -18 3 -34 4 -16 6 -31 2 -34 -7 -8 -5 -102 3 -116 3 -5 1 -10
-5 -10 -6 0 -8 -5 -5 -11 4 -6 7 -32 6 -57 -3 -132 -3 -151 3 -161 4 -5 2 -12
-3 -15 -5 -4 -6 -19 -3 -34 4 -15 6 -40 5 -57 -6 -60 -5 -124 2 -134 3 -6 2
-11 -4 -11 -6 0 -7 -11 -2 -27 7 -29 6 -75 -3 -99 -3 -7 0 -17 7 -21 6 -4 258
-7 559 -7 539 -1 547 -1 550 19 2 11 3 263 2 561 l0 540 1121 0 1121 0 3 -26
c1 -14 2 -31 2 -37 -1 -20 -2 -33 -1 -90 0 -29 0 -75 -1 -102 -1 -27 2 -54 6
-60 3 -6 1 -11 -5 -11 -6 0 -8 -5 -5 -11 7 -10 8 -74 2 -134 -1 -16 1 -42 5
-57 3 -15 3 -30 -2 -33 -5 -3 -5 -18 -1 -33 4 -15 5 -38 1 -52 -4 -14 -3 -37
1 -52 4 -15 4 -30 -1 -33 -5 -3 -5 -18 -1 -33 5 -15 5 -36 1 -47 -4 -11 -4
-32 1 -47 4 -15 4 -30 -1 -33 -5 -3 -5 -18 -2 -33 4 -15 6 -40 5 -57 -6 -54
-5 -127 2 -133 8 -8 1084 -9 1098 0 7 4 11 176 11 560 l1 553 550 1 c303 0
555 3 560 6 6 4 9 204 8 545 0 296 -2 543 -2 549 -1 8 -153 11 -558 11 l-558
0 0 1124 0 1124 555 0 c529 0 555 0 560 18 4 14 5 1042 1 1083 -1 7 -170 10
-552 10 -303 -1 -554 1 -558 4 -5 3 -7 248 -7 545 1 297 0 547 -2 556 -3 14
-62 15 -560 14 -306 -1 -559 -3 -561 -4 -2 0 1 -7 6 -13 5 -7 7 -24 3 -38 -4
-14 -3 -37 1 -51 4 -15 3 -32 -1 -39 -4 -7 -4 -25 0 -40 4 -15 4 -33 0 -41 -5
-7 -6 -17 -3 -22 3 -5 5 -31 4 -58 -1 -27 -1 -71 -2 -98 -1 -27 2 -54 6 -60 3
-6 1 -11 -5 -11 -6 0 -8 -5 -5 -11 7 -10 8 -74 2 -134 -1 -16 1 -42 5 -57 3
-15 3 -30 -2 -33 -5 -3 -5 -18 0 -34 4 -15 4 -34 0 -41 -4 -7 -4 -25 0 -40 4
-15 4 -33 0 -41 -5 -7 -6 -17 -3 -22 5 -8 5 -32 2 -153 -1 -29 1 -56 5 -62 3
-5 -2 -11 -12 -14 -9 -2 -227 -3 -484 -2 -423 0 -469 2 -486 17 -10 9 -23 17
-29 17 -6 0 -13 3 -15 8 -4 9 -209 146 -225 150 -7 2 -13 8 -13 13 0 5 -7 9
-15 9 -8 0 -15 5 -15 10 0 6 -6 10 -14 10 -8 0 -16 3 -18 8 -5 10 -66 52 -77
52 -5 0 -11 3 -13 8 -3 6 -109 80 -133 92 -21 10 -101 66 -119 83 -11 9 -26
17 -33 17 -7 0 -13 4 -13 9 0 5 -9 13 -20 16 -11 3 -26 12 -32 18 -7 7 -56 40
-108 74 -52 34 -100 66 -107 72 -7 6 -17 11 -23 11 -5 0 -10 4 -10 9 0 4 -20
19 -45 32 -25 13 -45 27 -45 31 0 5 -7 8 -15 8 -8 0 -15 4 -15 8 0 5 -10 14
-22 21 -40 21 -118 71 -128 81 -6 6 -211 143 -225 150 -14 7 -99 64 -105 70
-3 3 -23 17 -45 31 -159 104 -341 225 -345 230 -3 3 -23 16 -45 29 -22 13 -42
26 -45 29 -7 8 -109 75 -147 97 -18 10 -33 22 -33 26 0 4 -7 8 -15 8 -8 0 -15
3 -15 8 0 10 -57 42 -64 35z m1584 -2383 c245 -163 448 -296 451 -296 3 1 12
-6 21 -14 13 -13 98 -15 657 -15 584 0 644 -1 652 -16 4 -9 5 -19 2 -23 -8 -8
-7 -101 2 -115 3 -6 1 -11 -5 -11 -6 0 -8 -5 -5 -11 7 -10 8 -74 2 -134 -1
-16 1 -42 5 -57 3 -15 3 -30 -2 -33 -5 -3 -5 -18 0 -34 4 -15 4 -34 0 -41 -4
-7 -4 -25 0 -40 4 -15 4 -33 0 -41 -5 -7 -6 -17 -3 -22 3 -5 5 -31 4 -58 -1
-27 -1 -71 -2 -98 -1 -27 2 -54 6 -60 3 -6 1 -11 -5 -11 -6 0 -8 -5 -5 -11 7
-10 8 -74 2 -134 -1 -16 1 -42 5 -57 3 -15 3 -30 -2 -33 -5 -3 -5 -18 0 -34 4
-15 4 -34 0 -41 -4 -7 -4 -25 0 -40 4 -15 4 -33 0 -41 -5 -7 -6 -17 -3 -22 3
-5 5 -31 4 -58 -1 -27 -1 -71 -2 -98 -1 -27 2 -54 6 -60 3 -6 1 -11 -5 -11 -6
0 -8 -5 -5 -11 7 -10 8 -74 2 -134 -1 -16 1 -42 5 -57 3 -15 3 -30 -2 -33 -5
-3 -5 -18 0 -34 4 -15 4 -34 0 -41 -4 -7 -4 -25 0 -40 4 -15 4 -33 0 -41 -5
-7 -6 -17 -3 -22 5 -8 5 -28 2 -159 -1 -25 2 -51 6 -57 3 -6 1 -11 -5 -11 -6
0 -8 -5 -4 -11 9 -15 11 -119 2 -119 -4 0 -5 -7 -2 -15 4 -11 -1 -15 -17 -16
-13 -1 -33 -2 -44 -3 -11 0 -30 2 -42 6 -13 4 -23 4 -23 0 0 -5 -1884 -8
-2015 -3 -16 1 -46 0 -65 -1 l-35 -3 -1 1442 c0 1034 2 1440 10 1436 6 -4 211
-140 456 -303z"/>
</g>
</svg>
